<svg width="307" height="307" viewBox="0 0 307 307" fill="none" xmlns="http://www.w3.org/2000/svg">
<path fill-rule="evenodd" clip-rule="evenodd" d="M153.5 303.5C136.868 303.5 120.868 300.793 105.917 295.796C100.787 294.081 98.725 288.084 101.384 283.375L151.241 195.072L174.981 238.793C178.48 245.237 185.224 249.249 192.557 249.249H250.81C253.223 249.249 254.649 246.545 253.285 244.554L189.851 151.913L251.412 54.523C254.453 49.7121 261.153 48.8908 264.963 53.1187C288.918 79.7017 303.5 114.898 303.5 153.5C303.5 236.343 236.343 303.5 153.5 303.5ZM35.823 246.527C39.4137 251.063 46.2831 250.564 49.5503 245.79L113.918 151.729L55.4027 61.0399C54.1146 59.0436 55.5477 56.4134 57.9235 56.4134H116.002C123.523 56.4134 130.409 60.633 133.823 67.3347L151.977 102.969L197.409 21.0885C200.122 16.1998 197.768 10.0294 192.367 8.58447C179.971 5.26812 166.942 3.5 153.5 3.5C70.6573 3.5 3.5 70.6573 3.5 153.5C3.5 188.641 15.5839 220.959 35.823 246.527Z" fill="white"/>
<path fill-rule="evenodd" clip-rule="evenodd" d="M153.5 303.5C136.868 303.5 120.868 300.793 105.917 295.796C100.787 294.081 98.725 288.084 101.384 283.375L151.241 195.072L174.981 238.793C178.48 245.237 185.224 249.249 192.557 249.249H250.81C253.223 249.249 254.649 246.545 253.285 244.554L189.851 151.913L251.412 54.523C254.453 49.7121 261.153 48.8908 264.963 53.1187C288.918 79.7017 303.5 114.898 303.5 153.5C303.5 236.343 236.343 303.5 153.5 303.5ZM35.823 246.527C39.4137 251.063 46.2831 250.564 49.5503 245.79L113.918 151.729L55.4027 61.0399C54.1146 59.0436 55.5477 56.4134 57.9235 56.4134H116.002C123.523 56.4134 130.409 60.633 133.823 67.3347L151.977 102.969L197.409 21.0885C200.122 16.1998 197.768 10.0294 192.367 8.58447C179.971 5.26812 166.942 3.5 153.5 3.5C70.6573 3.5 3.5 70.6573 3.5 153.5C3.5 188.641 15.5839 220.959 35.823 246.527Z" stroke="#333333" stroke-width="7"/>
</svg>
