<svg width="300" height="300" viewBox="0 0 300 300" fill="none" xmlns="http://www.w3.org/2000/svg">
<path fill-rule="evenodd" clip-rule="evenodd" d="M150 300C149.322 300 148.646 299.996 147.97 299.987C117.924 299.588 105.915 265.651 120.689 239.485L147.741 191.572L171.481 235.293C174.98 241.737 181.724 245.749 189.057 245.749H247.31C249.723 245.749 251.149 243.045 249.785 241.054L186.351 148.413L253.797 41.7121C282.272 69.0134 300 107.436 300 150C300 232.843 232.843 300 150 300ZM39.6655 251.62L110.418 148.229L51.9027 57.5399C50.6146 55.5436 52.0477 52.9134 54.4235 52.9134H112.502C120.023 52.9134 126.909 57.133 130.323 63.8347L148.477 99.4695L174.837 51.9619C187.504 29.1317 176.109 0 150 0C67.1573 0 0 67.1573 0 150C0 189.204 15.0403 224.896 39.6655 251.62Z" fill="white"/>
</svg>
