<svg width="307" height="307" viewBox="0 0 307 307" fill="none" xmlns="http://www.w3.org/2000/svg">
<path fill-rule="evenodd" clip-rule="evenodd" d="M153.5 303.5C136.47 303.5 120.103 300.662 104.845 295.433C100.297 293.874 98.4643 288.546 100.828 284.36L151.241 195.072L174.981 238.793C178.48 245.237 185.224 249.249 192.557 249.249H250.81C253.223 249.249 254.649 246.545 253.285 244.554L189.851 151.913L252.065 53.4884C254.769 49.2121 260.723 48.4822 264.14 52.2128C288.584 78.8996 303.5 114.458 303.5 153.5C303.5 236.343 236.343 303.5 153.5 303.5ZM36.6066 247.508C39.8319 251.513 45.9367 251.07 48.8409 246.826L113.918 151.729L55.4027 61.0399C54.1146 59.0436 55.5477 56.4134 57.9235 56.4134H116.002C123.523 56.4134 130.409 60.633 133.823 67.3347L151.977 102.969L197.987 20.0478C200.398 15.7023 198.306 10.2194 193.516 8.89669C180.777 5.37921 167.358 3.5 153.5 3.5C70.6573 3.5 3.5 70.6573 3.5 153.5C3.5 189.092 15.8962 221.789 36.6066 247.508Z" fill="white"/>
<path fill-rule="evenodd" clip-rule="evenodd" d="M153.5 303.5C136.47 303.5 120.103 300.662 104.845 295.433C100.297 293.874 98.4643 288.546 100.828 284.36L151.241 195.072L174.981 238.793C178.48 245.237 185.224 249.249 192.557 249.249H250.81C253.223 249.249 254.649 246.545 253.285 244.554L189.851 151.913L252.065 53.4884C254.769 49.2121 260.723 48.4822 264.14 52.2128C288.584 78.8996 303.5 114.458 303.5 153.5C303.5 236.343 236.343 303.5 153.5 303.5ZM36.6066 247.508C39.8319 251.513 45.9367 251.07 48.8409 246.826L113.918 151.729L55.4027 61.0399C54.1146 59.0436 55.5477 56.4134 57.9235 56.4134H116.002C123.523 56.4134 130.409 60.633 133.823 67.3347L151.977 102.969L197.987 20.0478C200.398 15.7023 198.306 10.2194 193.516 8.89669C180.777 5.37921 167.358 3.5 153.5 3.5C70.6573 3.5 3.5 70.6573 3.5 153.5C3.5 189.092 15.8962 221.789 36.6066 247.508Z" stroke="#333333" stroke-width="7"/>
</svg>
